<?xml version="1.0" encoding="UTF-8"?>
<svg version="1.1" xmlns="http://www.w3.org/2000/svg" width="1536" height="353">
<path d="M0 0 C13.2 0 26.4 0 40 0 C48 8 48 8 48 12 C48.66 12 49.32 12 50 12 C54 17.41176471 54 17.41176471 54 20 C54.66 20 55.32 20 56 20 C57.2890625 21.4609375 57.2890625 21.4609375 58.625 23.375 C59.07101563 24.00148438 59.51703125 24.62796875 59.9765625 25.2734375 C61 27 61 27 61 29 C61.66 29 62.32 29 63 29 C67 34.41176471 67 34.41176471 67 37 C67.66 37 68.32 37 69 37 C70.60522674 39.05129163 72.09360371 41.10379479 73.5625 43.25 C74.45559995 44.5322481 75.35016182 45.81347905 76.24609375 47.09375 C76.92841064 48.07021484 76.92841064 48.07021484 77.62451172 49.06640625 C80.43449158 53.01653768 83.41914809 56.83654458 86.3828125 60.671875 C88 63 88 63 88 65 C88.66 65 89.32 65 90 65 C91.29345703 66.49365234 91.29345703 66.49365234 92.7578125 68.5859375 C93.29656006 69.34640381 93.83530762 70.10687012 94.39038086 70.89038086 C94.96280518 71.71030518 95.53522949 72.53022949 96.125 73.375 C101.3603893 80.78471711 101.3603893 80.78471711 106.9375 87.9375 C110.94463386 92.84472441 114.7242764 97.91409137 118.5 103 C119.13671631 103.85070068 119.77343262 104.70140137 120.42944336 105.57788086 C121.01991455 106.37718018 121.61038574 107.17647949 122.21875 108 C122.75435547 108.721875 123.28996094 109.44375 123.84179688 110.1875 C125 112 125 112 125 114 C125.66 114 126.32 114 127 114 C128.23681641 115.34521484 128.23681641 115.34521484 129.6015625 117.2109375 C130.09140625 117.87867187 130.58125 118.54640625 131.0859375 119.234375 C131.59382812 119.94078125 132.10171875 120.6471875 132.625 121.375 C133.3984375 122.42300781 133.3984375 122.42300781 134.1875 123.4921875 C138 128.73689649 138 128.73689649 138 131 C138.66 131 139.32 131 140 131 C144 136.41176471 144 136.41176471 144 139 C144.66 139 145.32 139 146 139 C147.37898043 140.69810754 148.67959478 142.46035459 149.9375 144.25 C150.62714844 145.22453125 151.31679687 146.1990625 152.02734375 147.203125 C152.67832031 148.12609375 153.32929688 149.0490625 154 150 C154.57878906 150.73734375 155.15757812 151.4746875 155.75390625 152.234375 C157 154 157 154 157 156 C157.66 156 158.32 156 159 156 C160.5078125 157.8984375 160.5078125 157.8984375 162.125 160.375 C162.66382813 161.18710938 163.20265625 161.99921875 163.7578125 162.8359375 C165 165 165 165 165 167 C165.66 167 166.32 167 167 167 C167.99 168.32 168.98 169.64 170 171 C170.33 114.57 170.66 58.14 171 0 C185.19 0 199.38 0 214 0 C214 82.17 214 164.34 214 249 C200.8 249 187.6 249 174 249 C170 243 170 243 170 241 C169.34 241 168.68 241 168 241 C165 237.53846154 165 237.53846154 165 235 C164.34 235 163.68 235 163 235 C161.4921875 233.1015625 161.4921875 233.1015625 159.875 230.625 C159.33617187 229.81289062 158.79734375 229.00078125 158.2421875 228.1640625 C157 226 157 226 157 224 C156.34 224 155.68 224 155 224 C153.98648336 222.34151823 152.98879205 220.67334039 152 219 C151.360625 218.360625 150.72125 217.72125 150.0625 217.0625 C147.59488985 214.59488985 145.81160471 211.97620774 144 209 C144 208.34 144 207.68 144 207 C143.34 207 142.68 207 142 207 C138 201.58823529 138 201.58823529 138 199 C137.34 199 136.68 199 136 199 C134.7109375 197.5390625 134.7109375 197.5390625 133.375 195.625 C132.92898437 194.99851563 132.48296875 194.37203125 132.0234375 193.7265625 C131 192 131 192 131 190 C130.34 190 129.68 190 129 190 C125 184.58823529 125 184.58823529 125 182 C124.34 182 123.68 182 123 182 C121.7109375 180.5390625 121.7109375 180.5390625 120.375 178.625 C119.92898437 177.99851563 119.48296875 177.37203125 119.0234375 176.7265625 C118 175 118 175 118 173 C117.34 173 116.68 173 116 173 C112 167.58823529 112 167.58823529 112 165 C111.34 165 110.68 165 110 165 C108.4921875 163.1015625 108.4921875 163.1015625 106.875 160.625 C106.33617188 159.81289062 105.79734375 159.00078125 105.2421875 158.1640625 C104 156 104 156 104 154 C103.34 154 102.68 154 102 154 C100.76318359 152.65478516 100.76318359 152.65478516 99.3984375 150.7890625 C98.90859375 150.12132812 98.41875 149.45359375 97.9140625 148.765625 C97.40617187 148.05921875 96.89828125 147.3528125 96.375 146.625 C95.6015625 145.57699219 95.6015625 145.57699219 94.8125 144.5078125 C91 139.26310351 91 139.26310351 91 137 C90.34 137 89.68 137 89 137 C87.64306641 135.42700195 87.64306641 135.42700195 86.1015625 133.23828125 C85.53953125 132.44873047 84.9775 131.65917969 84.3984375 130.84570312 C83.81320313 130.00974609 83.22796875 129.17378906 82.625 128.3125 C81.47249522 126.68278621 80.31887719 125.05385904 79.1640625 123.42578125 C78.62040039 122.65572754 78.07673828 121.88567383 77.51660156 121.09228516 C76.26478755 119.3652977 74.93482556 117.69524749 73.5859375 116.04296875 C72 114 72 114 72 112 C71.34 112 70.68 112 70 112 C68.33295001 109.86521656 66.77988045 107.73011018 65.25 105.5 C64.35243258 104.21293445 63.45399826 102.92647303 62.5546875 101.640625 C62.11866211 101.01478516 61.68263672 100.38894531 61.23339844 99.74414062 C59.23082165 96.91230995 57.10544734 94.17819276 54.9609375 91.453125 C54 90 54 90 54 88 C53.34 88 52.68 88 52 88 C49.36 84.37 46.72 80.74 44 77 C43.67 133.76 43.34 190.52 43 249 C28.81 249 14.62 249 0 249 C0 166.83 0 84.66 0 0 Z " fill="#000000" transform="translate(0,0)"/>
<path d="M0 0 C4.41375 0.04125 8.8275 0.0825 13.375 0.125 C13.375 12.665 13.375 25.205 13.375 38.125 C3.4375 38.4375 3.4375 38.4375 0.36352539 38.51293945 C-8.11135121 38.85094763 -14.94437785 41.17285197 -22.5625 44.8125 C-27.41261062 47.125 -27.41261062 47.125 -29.625 47.125 C-29.625 47.785 -29.625 48.445 -29.625 49.125 C-31.0859375 50.6328125 -31.0859375 50.6328125 -33 52.25 C-33.62648438 52.78882813 -34.25296875 53.32765625 -34.8984375 53.8828125 C-36.625 55.125 -36.625 55.125 -38.625 55.125 C-38.9034375 55.85074219 -39.181875 56.57648438 -39.46875 57.32421875 C-40.89785789 60.78594293 -42.64062989 64.03225953 -44.40625 67.33203125 C-49.80371903 79.70123111 -49.42316056 95.80100388 -44.90625 108.3515625 C-43.26296255 111.90867862 -41.3229689 115.07670519 -38.9921875 118.22265625 C-37.63022804 120.11772556 -36.61209102 122.0145054 -35.625 124.125 C-34.965 124.125 -34.305 124.125 -33.625 124.125 C-33.625 124.785 -33.625 125.445 -33.625 126.125 C-32.965 126.351875 -32.305 126.57875 -31.625 126.8125 C-29.13767812 127.90070332 -27.33049656 128.98138478 -25.125 130.5 C-11.66202716 138.82481073 6.19271977 139.51801578 21.4921875 136.4296875 C30.34862236 133.9023116 39.59761646 129.45055797 46.375 123.125 C46.705 122.465 47.035 121.805 47.375 121.125 C48.035 121.125 48.695 121.125 49.375 121.125 C49.66375 120.5475 49.9525 119.97 50.25 119.375 C51.29166667 117.29166667 52.33333333 115.20833333 53.375 113.125 C54.035 113.125 54.695 113.125 55.375 113.125 C55.57802734 112.23748047 55.57802734 112.23748047 55.78515625 111.33203125 C56.375 109.125 56.375 109.125 57.8125 105.8125 C60.06372762 99.54858867 60.06372762 99.54858867 61.375 86.125 C74.245 86.125 87.115 86.125 100.375 86.125 C100.375 95.13860544 100.375 95.13860544 99.82421875 98.2734375 C99.7046582 98.96356934 99.58509766 99.65370117 99.46191406 100.36474609 C99.2642041 101.42169678 99.2642041 101.42169678 99.0625 102.5 C98.85512207 103.61689209 98.85512207 103.61689209 98.64355469 104.75634766 C95.31552218 122.17355651 86.95082467 136.45976244 72.375 147.125 C71.715 147.125 71.055 147.125 70.375 147.125 C70.375 147.785 70.375 148.445 70.375 149.125 C68.1875 150.6328125 68.1875 150.6328125 65.375 152.25 C64.446875 152.78882813 63.51875 153.32765625 62.5625 153.8828125 C61.840625 154.29273438 61.11875 154.70265625 60.375 155.125 C63.45769139 157.56913389 66.65971111 159.45609524 70.125 161.3125 C71.10984375 161.84230469 72.0946875 162.37210938 73.109375 162.91796875 C74.23085937 163.51544922 74.23085937 163.51544922 75.375 164.125 C75.375 164.785 75.375 165.445 75.375 166.125 C76.11878906 166.37121094 76.86257813 166.61742187 77.62890625 166.87109375 C85.54883645 170.48744879 92.11441915 180.90330773 95.50317383 188.73095703 C98.29274236 196.52405864 98.95722262 203.44764751 98.8125 211.6875 C98.81958984 212.82896484 98.82667969 213.97042969 98.83398438 215.14648438 C98.71164981 231.62400896 92.4482184 246.8523278 81.375 259.125 C69.44850158 270.125 69.44850158 270.125 64.375 270.125 C64.375 270.785 64.375 271.445 64.375 272.125 C48.64435722 279.57195323 33.21876299 284.22973852 15.66015625 284.328125 C14.84614853 284.33382507 14.03214081 284.33952515 13.19346619 284.34539795 C11.47656529 284.35479096 9.75964683 284.36135907 8.04272461 284.36523438 C5.47540851 284.3748579 2.90892302 284.40590156 0.34179688 284.4375 C-15.49199992 284.53942838 -30.04283177 282.69724484 -44.625 276.125 C-46.15060547 275.444375 -46.15060547 275.444375 -47.70703125 274.75 C-62.18496601 267.91061619 -72.33205585 258.71285601 -80.625 245.125 C-80.99496094 244.52429688 -81.36492187 243.92359375 -81.74609375 243.3046875 C-88.35935726 231.41625272 -89.625 217.39102964 -89.625 204.125 C-75.765 204.125 -61.905 204.125 -47.625 204.125 C-46.965 208.745 -46.305 213.365 -45.625 218.125 C-43.75981523 222.24287429 -43.75981523 222.24287429 -41.6484375 226.234375 C-40.625 228.125 -40.625 228.125 -40.625 230.125 C-39.965 230.125 -39.305 230.125 -38.625 230.125 C-38.625 230.785 -38.625 231.445 -38.625 232.125 C-38.026875 232.41375 -37.42875 232.7025 -36.8125 233 C-34.625 234.125 -34.625 234.125 -31.625 236.125 C-31.625 236.785 -31.625 237.445 -31.625 238.125 C-31.08230469 238.23972656 -30.53960938 238.35445312 -29.98046875 238.47265625 C-26.15434883 239.53229477 -22.61155588 241.2634156 -18.98828125 242.87109375 C-11.31206969 245.7329566 -4.03349719 246.48453947 4.125 246.4375 C5.56927368 246.43339111 5.56927368 246.43339111 7.04272461 246.42919922 C20.69652867 246.22963921 36.07805483 242.87418569 46.38671875 233.24609375 C48.35207883 230.96665676 50.027787 228.819426 51.375 226.125 C52.035 226.125 52.695 226.125 53.375 226.125 C55.88202064 215.60446694 55.88202064 206.64553306 53.375 196.125 C52.715 196.125 52.055 196.125 51.375 196.125 C50.859375 195.25875 50.34375 194.3925 49.8125 193.5 C44.46786704 185.13791743 33.45354239 181.32403472 24.23828125 179.04296875 C19.01769431 177.92296259 13.88485162 177.79837286 8.5625 177.6875 C-13.9998293 176.92384634 -33.70416108 172.81226088 -53.625 162.125 C-54.95571388 161.45311995 -56.28779465 160.78386574 -57.625 160.125 C-57.625 159.465 -57.625 158.805 -57.625 158.125 C-58.24375 157.815625 -58.8625 157.50625 -59.5 157.1875 C-60.875 156.5 -62.25 155.8125 -63.625 155.125 C-63.625 154.465 -63.625 153.805 -63.625 153.125 C-64.285 153.125 -64.945 153.125 -65.625 153.125 C-65.625 152.465 -65.625 151.805 -65.625 151.125 C-66.285 151.125 -66.945 151.125 -67.625 151.125 C-67.625 150.465 -67.625 149.805 -67.625 149.125 C-68.285 149.125 -68.945 149.125 -69.625 149.125 C-69.625 148.465 -69.625 147.805 -69.625 147.125 C-70.615 146.795 -71.605 146.465 -72.625 146.125 C-75.58754552 142.3229652 -78.08767832 138.21978336 -80.625 134.125 C-81.03234375 133.47273437 -81.4396875 132.82046875 -81.859375 132.1484375 C-84.39221589 127.60178049 -85.81134316 122.64619111 -87.3125 117.6875 C-87.52737061 116.98343018 -87.74224121 116.27936035 -87.96362305 115.55395508 C-90.54255518 106.63132423 -90.78643519 97.86739374 -90.75 88.625 C-90.75386719 87.64402344 -90.75773437 86.66304688 -90.76171875 85.65234375 C-90.73471856 65.37520437 -84.19910553 44.56716344 -70.125 29.4375 C-68.8875 28.2928125 -68.8875 28.2928125 -67.625 27.125 C-66.56144046 26.02185387 -65.4989672 24.91765956 -64.4375 23.8125 C-61.625 21.125 -61.625 21.125 -59.625 21.125 C-59.625 20.465 -59.625 19.805 -59.625 19.125 C-41.64077955 6.05627024 -22.05951481 -0.29302047 0 0 Z " fill="#000000" transform="translate(1214.625,68.875)"/>
<path d="M0 0 C0.99 0.33 1.98 0.66 3 1 C3 1.66 3 2.32 3 3 C3.55816406 3.08636719 4.11632812 3.17273438 4.69140625 3.26171875 C7.68792262 4.21999556 9.52171096 5.80616673 11.9375 7.8125 C12.77152344 8.49957031 13.60554687 9.18664062 14.46484375 9.89453125 C15.71974609 10.93673828 15.71974609 10.93673828 17 12 C18.66418674 13.33642735 20.33013233 14.6706778 22 16 C22.99 14.515 22.99 14.515 24 13 C24.66 13 25.32 13 26 13 C26 12.34 26 11.68 26 11 C26.66 11 27.32 11 28 11 C28 10.34 28 9.68 28 9 C29.1127361 7.8524909 30.24090042 6.71777764 31.421875 5.640625 C33.11397668 3.98427855 33.11397668 3.98427855 34.515625 1.671875 C36.25 -0.8125 36.25 -0.8125 41 -5 C46.61 -5 52.22 -5 58 -5 C58 53.41 58 111.82 58 172 C45.79 172 33.58 172 21 172 C20.34 165.73 19.68 159.46 19 153 C17.081875 154.7325 17.081875 154.7325 15.125 156.5 C11.25 160 11.25 160 9 160 C9 160.66 9 161.32 9 162 C-14.85976339 175.81976394 -41.43631333 180.05211759 -68.5625 173.25 C-75.03133486 171.43605868 -81.01382286 169.03664703 -87 166 C-87 165.34 -87 164.68 -87 164 C-87.55816406 163.90203125 -88.11632812 163.8040625 -88.69140625 163.703125 C-95.24196978 161.70802951 -101.57959694 156.1571369 -106 151 C-106 150.34 -106 149.68 -106 149 C-106.66 149 -107.32 149 -108 149 C-108 148.34 -108 147.68 -108 147 C-108.66 147 -109.32 147 -110 147 C-114 141.58823529 -114 141.58823529 -114 139 C-114.66 139 -115.32 139 -116 139 C-120.75598055 131.41575883 -123.91797959 123.91512554 -126.375 115.3125 C-126.75035889 114.01372925 -126.75035889 114.01372925 -127.13330078 112.6887207 C-133.94750459 87.71198827 -131.76503624 56.30313518 -119.1875 33.4375 C-118.14152782 31.615412 -117.08553561 29.7987982 -116 28 C-115.34 28 -114.68 28 -114 28 C-113.71125 27.236875 -113.4225 26.47375 -113.125 25.6875 C-112 23 -112 23 -110 20 C-109.34 20 -108.68 20 -108 20 C-107.773125 19.443125 -107.54625 18.88625 -107.3125 18.3125 C-100.33422881 6.01745076 -83.15658285 -2.07140192 -70.18310547 -5.85546875 C-48.00199621 -11.81674691 -20.34975859 -11.34890383 0 0 Z M-72.6875 43.375 C-78.31211075 49.03151938 -78.31211075 49.03151938 -81 56 C-81.66 56 -82.32 56 -83 56 C-89.51958295 72.07741816 -91.37259946 88.55726027 -85.3125 105.125 C-79.0812951 119.47286663 -68.78211793 128.58487937 -54.82421875 135 C-41.54200237 140.20282676 -26.13242862 138.61345075 -13.26953125 133.0859375 C-10.06520615 131.55271482 -7.03420189 129.8469055 -4 128 C-4 127.34 -4 126.68 -4 126 C-3.01 126 -2.02 126 -1 126 C-1 125.34 -1 124.68 -1 124 C-0.34 124 0.32 124 1 124 C1 123.34 1 122.68 1 122 C1.66 122 2.32 122 3 122 C15.10085172 105.7860509 17.63456676 90.93711007 16 71 C14.55779213 62.52855836 10.30593522 53.75300846 5 47 C4.34 47 3.68 47 3 47 C3 46.34 3 45.68 3 45 C2.34 45 1.68 45 1 45 C1 44.34 1 43.68 1 43 C0.34 43 -0.32 43 -1 43 C-1 42.34 -1 41.68 -1 41 C-1.99 41 -2.98 41 -4 41 C-4 40.34 -4 39.68 -4 39 C-4.92232422 38.49339844 -4.92232422 38.49339844 -5.86328125 37.9765625 C-6.67152344 37.53054687 -7.47976563 37.08453125 -8.3125 36.625 C-9.11300781 36.18414062 -9.91351562 35.74328125 -10.73828125 35.2890625 C-12.53527943 34.26486665 -14.27900708 33.14732862 -16 32 C-21.16156552 30.23487204 -25.97664202 29.57092235 -31.375 29.3125 C-32.12740967 29.27560059 -32.87981934 29.23870117 -33.6550293 29.20068359 C-48.77498558 28.56229635 -61.2377138 33.25658429 -72.6875 43.375 Z " fill="#000000" transform="translate(954,77)"/>
<path d="M0 0 C2.33235903 0.0214537 4.66162921 0.00004784 6.99389648 -0.02539062 C15.03958322 -0.04141852 22.6856041 0.59401499 30.55834961 2.30273438 C31.63795204 2.5351886 31.63795204 2.5351886 32.73936462 2.77233887 C37.86581635 3.99989127 42.26928969 6.03228706 46.89819336 8.52148438 C47.80827148 8.96492188 48.71834961 9.40835938 49.65600586 9.86523438 C54.30137231 12.13425825 58.77969828 14.37842234 62.89819336 17.52148438 C62.89819336 18.18148437 62.89819336 18.84148437 62.89819336 19.52148438 C63.48084961 19.77929688 64.06350586 20.03710938 64.66381836 20.30273438 C67.07848366 21.61982454 68.71559513 23.07236822 70.64819336 25.02148438 C71.26178711 25.62992188 71.87538086 26.23835938 72.50756836 26.86523438 C73.89819336 28.52148438 73.89819336 28.52148438 73.89819336 30.52148438 C74.55819336 30.52148438 75.21819336 30.52148438 75.89819336 30.52148438 C77.46195326 32.78561551 78.88496041 35.02721092 80.27319336 37.39648438 C80.67948975 38.08758301 81.08578613 38.77868164 81.50439453 39.49072266 C93.92325472 60.97131722 92.89819336 82.42861798 92.89819336 107.52148438 C47.02819336 107.85148437 1.15819336 108.18148437 -46.10180664 108.52148438 C-45.44180664 111.16148437 -44.78180664 113.80148438 -44.10180664 116.52148438 C-43.75515107 118.18543113 -43.41503692 119.85092289 -43.10180664 121.52148438 C-42.44180664 121.52148438 -41.78180664 121.52148438 -41.10180664 121.52148438 C-37.10180664 128.27148438 -37.10180664 128.27148438 -37.10180664 130.52148438 C-36.44180664 130.52148438 -35.78180664 130.52148438 -35.10180664 130.52148438 C-35.10180664 131.18148437 -35.10180664 131.84148437 -35.10180664 132.52148438 C-34.44180664 132.52148438 -33.78180664 132.52148438 -33.10180664 132.52148438 C-33.10180664 133.18148437 -33.10180664 133.84148437 -33.10180664 134.52148438 C-32.24522461 134.94107422 -32.24522461 134.94107422 -31.37133789 135.36914062 C-29.13641556 136.50391186 -26.96653028 137.71761886 -24.78930664 138.95898438 C-14.24993306 144.79511958 -4.45830221 146.91787608 7.52319336 146.89648438 C8.95236084 146.89406738 8.95236084 146.89406738 10.41040039 146.89160156 C22.11749909 146.69121155 32.581577 144.18550904 42.89819336 138.52148438 C43.88819336 138.52148438 44.87819336 138.52148438 45.89819336 138.52148438 C45.89819336 137.86148438 45.89819336 137.20148438 45.89819336 136.52148438 C52.64819336 132.52148438 52.64819336 132.52148438 54.89819336 132.52148438 C54.89819336 131.86148438 54.89819336 131.20148438 54.89819336 130.52148438 C56.64819336 129.83398437 56.64819336 129.83398437 58.89819336 129.52148438 C61.14819336 130.83398438 61.14819336 130.83398438 62.89819336 132.52148438 C62.89819336 133.18148437 62.89819336 133.84148437 62.89819336 134.52148438 C63.55819336 134.52148438 64.21819336 134.52148438 64.89819336 134.52148438 C64.89819336 135.18148437 64.89819336 135.84148437 64.89819336 136.52148438 C65.55819336 136.52148438 66.21819336 136.52148438 66.89819336 136.52148438 C66.89819336 137.18148437 66.89819336 137.84148437 66.89819336 138.52148438 C67.88819336 138.85148438 68.87819336 139.18148437 69.89819336 139.52148438 C69.89819336 140.18148437 69.89819336 140.84148437 69.89819336 141.52148438 C70.55819336 141.52148438 71.21819336 141.52148438 71.89819336 141.52148438 C71.89819336 142.18148437 71.89819336 142.84148437 71.89819336 143.52148438 C72.55819336 143.52148438 73.21819336 143.52148438 73.89819336 143.52148438 C73.89819336 144.18148437 73.89819336 144.84148437 73.89819336 145.52148438 C74.55819336 145.52148438 75.21819336 145.52148438 75.89819336 145.52148438 C75.89819336 146.18148437 75.89819336 146.84148437 75.89819336 147.52148438 C76.55819336 147.52148438 77.21819336 147.52148438 77.89819336 147.52148438 C77.89819336 148.18148437 77.89819336 148.84148437 77.89819336 149.52148438 C78.55819336 149.52148438 79.21819336 149.52148438 79.89819336 149.52148438 C79.89819336 150.18148437 79.89819336 150.84148437 79.89819336 151.52148438 C80.55819336 151.52148438 81.21819336 151.52148438 81.89819336 151.52148438 C82.14819336 153.77148438 82.14819336 153.77148438 81.89819336 156.52148438 C80.02319336 158.83398438 80.02319336 158.83398438 77.89819336 160.52148438 C77.23819336 160.52148438 76.57819336 160.52148438 75.89819336 160.52148438 C75.89819336 161.18148437 75.89819336 161.84148437 75.89819336 162.52148438 C74.54394531 163.66308594 74.54394531 163.66308594 72.63647461 164.91210938 C71.93635254 165.37157959 71.23623047 165.8310498 70.51489258 166.30444336 C69.75450684 166.78856689 68.99412109 167.27269043 68.21069336 167.77148438 C67.04691162 168.51410522 67.04691162 168.51410522 65.85961914 169.27172852 C54.74214567 176.24733082 43.72511873 180.66495282 30.89819336 183.52148438 C29.92108398 183.74835938 28.94397461 183.97523438 27.93725586 184.20898438 C11.40301978 187.40057954 -6.82581192 186.7364561 -23.10180664 182.52148438 C-24.18977539 182.25464844 -25.27774414 181.9878125 -26.39868164 181.71289062 C-37.50735718 178.66477844 -48.81507451 173.41117746 -58.10180664 166.52148438 C-58.10180664 165.86148438 -58.10180664 165.20148438 -58.10180664 164.52148438 C-58.76180664 164.52148438 -59.42180664 164.52148438 -60.10180664 164.52148438 C-60.10180664 163.86148438 -60.10180664 163.20148438 -60.10180664 162.52148438 C-61.09180664 162.52148438 -62.08180664 162.52148438 -63.10180664 162.52148438 C-63.10180664 161.86148438 -63.10180664 161.20148438 -63.10180664 160.52148438 C-63.76180664 160.52148438 -64.42180664 160.52148438 -65.10180664 160.52148438 C-69.10180664 156.05089614 -69.10180664 156.05089614 -69.10180664 153.52148438 C-69.76180664 153.52148438 -70.42180664 153.52148438 -71.10180664 153.52148438 C-87.57057262 134.24843935 -91.65149381 106.96427752 -90.10180664 82.52148438 C-89.47627062 76.4470742 -88.35561075 70.49286138 -87.10180664 64.52148438 C-86.82916992 63.05195313 -86.82916992 63.05195313 -86.55102539 61.55273438 C-84.54764023 52.50343 -79.58525509 44.53905571 -75.10180664 36.52148438 C-74.44180664 36.52148438 -73.78180664 36.52148438 -73.10180664 36.52148438 C-72.81305664 35.75835937 -72.52430664 34.99523437 -72.22680664 34.20898438 C-71.10180664 31.52148438 -71.10180664 31.52148438 -69.10180664 28.52148438 C-68.44180664 28.52148438 -67.78180664 28.52148438 -67.10180664 28.52148438 C-67.10180664 27.86148438 -67.10180664 27.20148438 -67.10180664 26.52148438 C-66.44180664 26.52148438 -65.78180664 26.52148438 -65.10180664 26.52148438 C-65.10180664 25.86148438 -65.10180664 25.20148438 -65.10180664 24.52148438 C-64.44180664 24.52148438 -63.78180664 24.52148438 -63.10180664 24.52148438 C-62.77180664 23.53148438 -62.44180664 22.54148437 -62.10180664 21.52148438 C-44.18735152 6.3181189 -23.27870111 -0.25321461 0 0 Z M-26.10180664 43.52148438 C-26.10180664 44.18148437 -26.10180664 44.84148437 -26.10180664 45.52148438 C-27.09180664 45.52148438 -28.08180664 45.52148438 -29.10180664 45.52148438 C-29.10180664 46.18148437 -29.10180664 46.84148437 -29.10180664 47.52148438 C-29.70379883 47.79476562 -30.30579102 48.06804687 -30.92602539 48.34960938 C-36.92327277 51.57972466 -39.98663734 57.79870359 -42.97680664 63.64648438 C-43.287229 64.24428711 -43.59765137 64.84208984 -43.91748047 65.45800781 C-45.78407252 69.25764871 -46.10180664 71.10785997 -46.10180664 75.52148438 C-13.43180664 75.52148438 19.23819336 75.52148438 52.89819336 75.52148438 C51.79003356 67.76436577 49.397874 62.36794699 45.89819336 55.52148438 C45.23819336 55.52148438 44.57819336 55.52148438 43.89819336 55.52148438 C43.58881836 54.71710938 43.58881836 54.71710938 43.27319336 53.89648438 C41.37237633 50.61325496 38.92178147 47.8295669 35.89819336 45.52148438 C34.90819336 45.52148438 33.91819336 45.52148438 32.89819336 45.52148438 C32.89819336 44.86148438 32.89819336 44.20148438 32.89819336 43.52148438 C31.2358144 42.72085333 29.56801211 41.93148069 27.89819336 41.14648438 C26.97006836 40.705625 26.04194336 40.26476562 25.08569336 39.81054688 C17.83358978 36.87771087 11.33286118 36.16134829 3.58569336 36.20898438 C2.65797119 36.21317383 1.73024902 36.21736328 0.77441406 36.22167969 C-9.33236599 36.38839678 -17.26030202 38.68367996 -26.10180664 43.52148438 Z " fill="#000000" transform="translate(341.101806640625,68.478515625)"/>
<path d="M0 0 C24.53863302 -0.66708034 47.52148676 3.7253615 68.02880859 18.06201172 C68.02880859 18.72201172 68.02880859 19.38201172 68.02880859 20.06201172 C68.59083984 20.29919922 69.15287109 20.53638672 69.73193359 20.78076172 C72.54774901 22.35148869 74.50836275 24.27672636 76.77880859 26.56201172 C77.97763672 27.75310547 77.97763672 27.75310547 79.20068359 28.96826172 C81.02880859 31.06201172 81.02880859 31.06201172 81.02880859 33.06201172 C81.68880859 33.06201172 82.34880859 33.06201172 83.02880859 33.06201172 C85.97619248 37.21307336 88.48406994 41.65505096 91.02880859 46.06201172 C91.769375 47.33044922 91.769375 47.33044922 92.52490234 48.62451172 C103.20491159 68.32097738 104.27415523 96.56814878 99.02880859 118.06201172 C98.78388672 119.09455078 98.53896484 120.12708984 98.28662109 121.19091797 C95.28709538 132.22014747 89.78513755 142.84243783 83.02880859 152.06201172 C82.36880859 152.06201172 81.70880859 152.06201172 81.02880859 152.06201172 C80.79162109 152.62404297 80.55443359 153.18607422 80.31005859 153.76513672 C78.73933163 156.58095214 76.81409395 158.54156588 74.52880859 160.81201172 C73.33771484 162.01083984 73.33771484 162.01083984 72.12255859 163.23388672 C70.02880859 165.06201172 70.02880859 165.06201172 68.02880859 165.06201172 C68.02880859 165.72201172 68.02880859 166.38201172 68.02880859 167.06201172 C58.40259917 173.96605536 46.8262272 179.36886835 35.34130859 182.18701172 C34.64142822 182.3587793 33.94154785 182.53054687 33.22045898 182.70751953 C3.82241514 189.62628685 -25.28208171 184.06392074 -50.97119141 169.06201172 C-50.97119141 168.40201172 -50.97119141 167.74201172 -50.97119141 167.06201172 C-51.96119141 167.06201172 -52.95119141 167.06201172 -53.97119141 167.06201172 C-53.97119141 166.40201172 -53.97119141 165.74201172 -53.97119141 165.06201172 C-54.52806641 164.83513672 -55.08494141 164.60826172 -55.65869141 164.37451172 C-58.6362333 162.68455551 -60.60744057 160.53832212 -62.97119141 158.06201172 C-63.51646484 157.53736328 -64.06173828 157.01271484 -64.62353516 156.47216797 C-66.11093736 155.04076209 -67.54506147 153.55447328 -68.97119141 152.06201172 C-68.97119141 151.40201172 -68.97119141 150.74201172 -68.97119141 150.06201172 C-69.63119141 150.06201172 -70.29119141 150.06201172 -70.97119141 150.06201172 C-71.63119141 148.08201172 -72.29119141 146.10201172 -72.97119141 144.06201172 C-73.63119141 144.06201172 -74.29119141 144.06201172 -74.97119141 144.06201172 C-87.67514683 118.17388263 -92.89145538 89.41504567 -83.72119141 61.37451172 C-80.4290991 52.10032837 -75.96800521 43.51815815 -70.97119141 35.06201172 C-70.31119141 35.06201172 -69.65119141 35.06201172 -68.97119141 35.06201172 C-68.70306641 34.48451172 -68.43494141 33.90701172 -68.15869141 33.31201172 C-66.94189952 31.00651129 -65.66785261 29.04144979 -63.97119141 27.06201172 C-63.31119141 27.06201172 -62.65119141 27.06201172 -61.97119141 27.06201172 C-61.97119141 26.40201172 -61.97119141 25.74201172 -61.97119141 25.06201172 C-61.31119141 25.06201172 -60.65119141 25.06201172 -59.97119141 25.06201172 C-59.97119141 24.40201172 -59.97119141 23.74201172 -59.97119141 23.06201172 C-56.50965294 20.06201172 -56.50965294 20.06201172 -53.97119141 20.06201172 C-53.97119141 19.40201172 -53.97119141 18.74201172 -53.97119141 18.06201172 C-52.98119141 18.06201172 -51.99119141 18.06201172 -50.97119141 18.06201172 C-50.97119141 17.40201172 -50.97119141 16.74201172 -50.97119141 16.06201172 C-47.97119141 14.06201172 -47.97119141 14.06201172 -44.97119141 14.06201172 C-44.97119141 13.40201172 -44.97119141 12.74201172 -44.97119141 12.06201172 C-37.33065757 8.17472257 -30.09373096 4.84171932 -21.72119141 2.93701172 C-20.9695874 2.76524414 -20.2179834 2.59347656 -19.44360352 2.41650391 C-12.93574714 0.97668175 -6.6641394 0.20964719 0 0 Z M-26.97119141 50.06201172 C-27.96119141 50.72201172 -28.95119141 51.38201172 -29.97119141 52.06201172 C-29.97119141 52.72201172 -29.97119141 53.38201172 -29.97119141 54.06201172 C-30.63119141 54.06201172 -31.29119141 54.06201172 -31.97119141 54.06201172 C-43.11325326 67.20744923 -46.81825804 82.69055982 -45.78369141 99.68701172 C-44.74159051 108.75863364 -41.26826718 117.08172815 -36.97119141 125.06201172 C-36.31119141 125.06201172 -35.65119141 125.06201172 -34.97119141 125.06201172 C-34.74431641 125.61888672 -34.51744141 126.17576172 -34.28369141 126.74951172 C-29.17921134 135.74311945 -18.27923328 142.02908827 -8.67431641 145.12451172 C7.22707762 149.15018109 21.69725335 146.35807621 36.02880859 139.06201172 C36.02880859 138.40201172 36.02880859 137.74201172 36.02880859 137.06201172 C36.77517578 136.79775391 37.52154297 136.53349609 38.29052734 136.26123047 C45.60515253 133.05782115 49.72502051 126.40666815 53.40380859 119.62451172 C53.73743408 119.01647705 54.07105957 118.40844238 54.41479492 117.78198242 C60.66146715 105.67554313 61.09799656 89.16870579 57.96630859 76.06201172 C52.84631993 61.05925425 44.12478967 50.26369676 30.02880859 43.06201172 C29.28373047 42.65982422 28.53865234 42.25763672 27.77099609 41.84326172 C9.4274956 33.13787165 -11.36033225 38.75988226 -26.97119141 50.06201172 Z " fill="#000000" transform="translate(1434.97119140625,67.93798828125)"/>
<path d="M0 0 C13.53 0 27.06 0 41 0 C41.01458252 2.91521484 41.02916504 5.83042969 41.04418945 8.83398438 C41.09477515 18.52109217 41.16141094 28.20804324 41.23571491 37.89499664 C41.28023301 43.76185198 41.31952899 49.62864083 41.34643555 55.49560547 C41.37265498 61.16919212 41.41318602 66.84252031 41.46318626 72.51594543 C41.47972993 74.66857155 41.4913213 76.82124224 41.49761391 78.97392273 C41.54660625 94.2088542 41.83317791 109.04335194 48.23046875 123.1796875 C49 125 49 125 49 127 C49.66 127 50.32 127 51 127 C52.2265625 128.35546875 52.2265625 128.35546875 53.625 130.1875 C58.58433151 136.17749943 65.4012363 140.28808152 73.12890625 141.484375 C84.20467826 142.34120378 93.74903598 141.31619538 104 137 C104.99 136.608125 105.98 136.21625 107 135.8125 C107.99 135.4103125 107.99 135.4103125 109 135 C109 134.34 109 133.68 109 133 C112.46153846 130 112.46153846 130 115 130 C115.33 129.01 115.66 128.02 116 127 C116.66 127 117.32 127 118 127 C118.2784375 126.44054687 118.556875 125.88109375 118.84375 125.3046875 C119.6271339 123.74321284 120.41908328 122.18601132 121.21875 120.6328125 C126.63907433 110.02351914 128.12969234 100.79046284 128.20532227 89.00390625 C128.21522186 88.03713455 128.22512146 87.07036285 128.23532104 86.07429504 C128.26671069 82.90372094 128.29160366 79.73313189 128.31640625 76.5625 C128.33699527 74.35432564 128.35799224 72.14615505 128.37937927 69.93798828 C128.43439878 64.14470484 128.48389628 58.35138702 128.53222656 52.55804443 C128.58258908 46.63892583 128.63819793 40.71985673 128.69335938 34.80078125 C128.80069463 23.20056168 128.90170845 11.60029972 129 0 C142.86 0 156.72 0 171 0 C171 58.41 171 116.82 171 177 C158.46 177 145.92 177 133 177 C132.67 170.73 132.34 164.46 132 158 C130.5975 159.340625 129.195 160.68125 127.75 162.0625 C119.33822707 169.60818065 109.86416866 174.87266086 99 178 C98.40799805 178.17732666 97.81599609 178.35465332 97.20605469 178.53735352 C90.43591373 180.32537734 83.63828473 180.33809098 76.68066406 180.31567383 C74.63552343 180.31251625 72.59183762 180.3360362 70.546875 180.36132812 C58.83842402 180.41796391 49.50685234 177.94811684 39 173 C37.33805262 172.32165413 35.67401097 171.64800425 34 171 C34 170.34 34 169.68 34 169 C31.03 168.01 31.03 168.01 28 167 C28 166.34 28 165.68 28 165 C27.34 165 26.68 165 26 165 C26 164.34 26 163.68 26 163 C25.1646875 162.6596875 25.1646875 162.6596875 24.3125 162.3125 C12.6288527 155.68124072 6.53931206 140.30050221 3 128 C2.74416138 127.15129333 2.48832275 126.30258667 2.22473145 125.42816162 C-0.97595106 113.00986006 -0.37604156 100.42690327 -0.29296875 87.6953125 C-0.28736432 85.15941622 -0.28309823 82.62351667 -0.28010559 80.08761597 C-0.26988235 74.13104061 -0.24631993 68.17461594 -0.21605712 62.21811759 C-0.18231674 55.42713595 -0.16597818 48.63614548 -0.15097082 41.84510064 C-0.11976333 27.89662373 -0.06483124 13.94835908 0 0 Z " fill="#000000" transform="translate(466,72)"/>
<path d="M0 0 C2.27355543 0.00848161 4.54456388 -0.02029853 6.81787109 -0.05200195 C20.6462706 -0.11855269 32.89490584 2.47302928 45.04052734 9.44604492 C45.04052734 10.10604492 45.04052734 10.76604492 45.04052734 11.44604492 C46.24708984 11.78635742 46.24708984 11.78635742 47.47802734 12.13354492 C50.04052734 13.44604492 50.04052734 13.44604492 50.97802734 15.88354492 C51.04052734 18.44604492 51.04052734 18.44604492 49.04052734 21.44604492 C48.38052734 21.44604492 47.72052734 21.44604492 47.04052734 21.44604492 C46.77240234 22.18854492 46.50427734 22.93104492 46.22802734 23.69604492 C45.08775984 26.33666441 43.94672429 28.30157336 42.04052734 30.44604492 C41.38052734 30.44604492 40.72052734 30.44604492 40.04052734 30.44604492 C39.75177734 31.20916992 39.46302734 31.97229492 39.16552734 32.75854492 C38.04052734 35.44604492 38.04052734 35.44604492 36.04052734 38.44604492 C35.38052734 38.44604492 34.72052734 38.44604492 34.04052734 38.44604492 C33.75177734 39.20916992 33.46302734 39.97229492 33.16552734 40.75854492 C32.04052734 43.44604492 32.04052734 43.44604492 30.04052734 46.44604492 C25.91735273 46.10244704 23.08685601 45.59250701 19.54052734 43.44604492 C13.5156501 40.2163349 6.72530575 40.52579824 0.04052734 40.44604492 C-0.77673828 40.42155273 -1.59400391 40.39706055 -2.43603516 40.37182617 C-8.90431999 40.60197114 -14.33577413 43.86256397 -19.92041016 46.85229492 C-22.95947266 48.44604492 -22.95947266 48.44604492 -25.95947266 49.44604492 C-25.95947266 50.10604492 -25.95947266 50.76604492 -25.95947266 51.44604492 C-26.61947266 51.44604492 -27.27947266 51.44604492 -27.95947266 51.44604492 C-27.95947266 52.10604492 -27.95947266 52.76604492 -27.95947266 53.44604492 C-28.61947266 53.44604492 -29.27947266 53.44604492 -29.95947266 53.44604492 C-30.22888672 54.16920898 -30.49830078 54.89237305 -30.77587891 55.63745117 C-31.94387651 58.40903625 -33.34091733 60.81387594 -34.89697266 63.38354492 C-41.23990221 74.84722981 -42.07092696 88.6532196 -42.16479492 101.54589844 C-42.17469452 102.40552689 -42.18459412 103.26515533 -42.1947937 104.15083313 C-42.22608341 106.9588456 -42.25103578 109.76687492 -42.27587891 112.57495117 C-42.29647662 114.53507396 -42.31747378 116.49519258 -42.33885193 118.45530701 C-42.39378186 123.58933115 -42.44331816 128.72339343 -42.49169922 133.85748291 C-42.55100983 140.03092831 -42.61707623 146.20430473 -42.68199921 152.37769318 C-42.7796423 161.73376794 -42.86874864 171.08988899 -42.95947266 180.44604492 C-56.48947266 180.44604492 -70.01947266 180.44604492 -83.95947266 180.44604492 C-83.95947266 122.03604492 -83.95947266 63.62604492 -83.95947266 3.44604492 C-64.40372941 3.44604492 -64.40372941 3.44604492 -56.39697266 10.44604492 C-55.56746094 11.1137793 -54.73794922 11.78151367 -53.88330078 12.46948242 C-51.87553521 14.09426381 -49.90623669 15.749114 -47.95947266 17.44604492 C-47.17572266 16.78604492 -46.39197266 16.12604492 -45.58447266 15.44604492 C-42.95947266 13.44604492 -42.95947266 13.44604492 -40.95947266 13.44604492 C-40.95947266 12.78604492 -40.95947266 12.12604492 -40.95947266 11.44604492 C-39.96947266 11.44604492 -38.97947266 11.44604492 -37.95947266 11.44604492 C-37.95947266 10.78604492 -37.95947266 10.12604492 -37.95947266 9.44604492 C-36.1958785 8.49499676 -34.42304787 7.56107594 -32.64697266 6.63354492 C-31.66083984 6.11147461 -30.67470703 5.5894043 -29.65869141 5.05151367 C-20.0081301 0.61486447 -10.46585829 -0.05929982 0 0 Z " fill="#000000" transform="translate(766.95947265625,68.553955078125)"/>
<path d="M0 0 C13.86 0 27.72 0 42 0 C42 82.17 42 164.34 42 249 C28.14 249 14.28 249 0 249 C0 166.83 0 84.66 0 0 Z " fill="#000000" transform="translate(1051,0)"/>
<path d="M0 0 C23.76 0 47.52 0 72 0 C72 23.1 72 46.2 72 70 C59.13 70 46.26 70 33 70 C33 59.44 33 48.88 33 38 C22.11 38 11.22 38 0 38 C0 25.46 0 12.92 0 0 Z " fill="#FC1212" transform="translate(1243,69)"/>
</svg>
